<svg width="280" height="220" viewBox="0 0 280 220" fill="none" xmlns="http://www.w3.org/2000/svg">
<defs>
<clipPath id="clip0_20_420">
<rect width="280" height="219.834" fill="white"/>
</clipPath>
</defs>
<g clip-path="url(#clip0_20_420)">
<path d="M254.873 200.686C249.506 206.432 243.355 211.394 236.604 215.425C236.449 215.521 236.291 215.61 236.133 215.702L225.203 206.028C225.317 205.921 225.445 205.802 225.581 205.67C233.726 197.936 274.159 143.864 276.853 130.697C276.667 131.794 279.284 174.813 254.873 200.686Z" fill="#F0F0F0"/>
<path d="M238.712 217.292C238.506 217.341 238.295 217.387 238.084 217.43L229.884 210.171C230.044 210.116 230.232 210.049 230.446 209.975C233.964 208.73 244.444 204.969 254.872 200.685C266.078 196.08 277.23 190.877 279.628 187.544C279.114 188.319 263.266 211.802 238.712 217.292Z" fill="#F0F0F0"/>
<path d="M254.722 57.574H253.554V25.5822C253.554 23.1507 253.075 20.7429 252.144 18.4964C251.214 16.25 249.85 14.2088 248.131 12.4894C246.411 10.7701 244.37 9.40617 242.124 8.47565C239.877 7.54514 237.469 7.06621 235.038 7.06621H167.259C164.827 7.0662 162.419 7.54513 160.173 8.47564C157.927 9.40615 155.885 10.77 154.166 12.4894C152.447 14.2088 151.083 16.2499 150.152 18.4964C149.222 20.7428 148.743 23.1506 148.743 25.5821V201.092C148.743 203.523 149.222 205.931 150.152 208.177C151.083 210.424 152.447 212.465 154.166 214.184C155.885 215.904 157.926 217.268 160.173 218.198C162.419 219.129 164.827 219.608 167.259 219.608H235.038C237.469 219.608 239.877 219.129 242.124 218.198C244.37 217.268 246.411 215.904 248.131 214.185C249.85 212.465 251.214 210.424 252.144 208.178C253.075 205.931 253.554 203.523 253.554 201.092V80.3463H254.722V57.574Z" fill="#3F3D56"/>
<path d="M249.612 25.7094V200.963C249.612 202.779 249.255 204.577 248.56 206.255C247.864 207.933 246.846 209.457 245.561 210.741C244.277 212.025 242.753 213.043 241.075 213.737C239.397 214.432 237.599 214.789 235.783 214.788H167.677C165.862 214.788 164.064 214.431 162.387 213.736C160.709 213.041 159.185 212.023 157.902 210.739C156.618 209.455 155.599 207.931 154.905 206.254C154.21 204.577 153.852 202.779 153.853 200.963V25.7094C153.852 23.8939 154.21 22.0961 154.905 20.4187C155.599 18.7414 156.618 17.2173 157.902 15.9336C159.185 14.6498 160.709 13.6315 162.387 12.9368C164.064 12.2421 165.862 11.8846 167.677 11.8847H175.942C175.537 12.8823 175.382 13.9642 175.493 15.0354C175.603 16.1066 175.975 17.1342 176.576 18.0279C177.177 18.9216 177.988 19.6539 178.939 20.1605C179.889 20.6671 180.949 20.9324 182.026 20.9331H220.855C221.932 20.9342 222.994 20.67 223.945 20.1639C224.896 19.6577 225.708 18.9253 226.31 18.0311C226.911 17.1369 227.283 16.1085 227.392 15.0366C227.502 13.9647 227.347 12.8822 226.939 11.8847H235.783C237.599 11.884 239.397 12.2411 241.075 12.9356C242.753 13.6301 244.277 14.6483 245.561 15.9321C246.846 17.2159 247.864 18.7401 248.56 20.4178C249.255 22.0954 249.612 23.8935 249.612 25.7094Z" fill="white"/>
<path d="M228.427 116.781H168.565C167.516 116.78 166.511 116.363 165.77 115.621C165.028 114.88 164.611 113.874 164.61 112.826V110.857C164.611 109.809 165.028 108.804 165.77 108.062C166.511 107.321 167.516 106.904 168.565 106.903H228.427C229.476 106.904 230.481 107.321 231.222 108.062C231.964 108.804 232.381 109.809 232.382 110.857V112.826C232.381 113.874 231.964 114.88 231.222 115.621C230.481 116.363 229.476 116.78 228.427 116.781Z" fill="#F0F0F0"/>
<path d="M228.427 133.75H168.565C167.516 133.748 166.511 133.331 165.77 132.59C165.028 131.849 164.611 130.843 164.61 129.795V127.826C164.611 126.778 165.028 125.773 165.77 125.031C166.511 124.29 167.516 123.873 168.565 123.872H228.427C229.476 123.873 230.481 124.29 231.222 125.031C231.964 125.773 232.381 126.778 232.382 127.826V129.795C232.381 130.843 231.964 131.849 231.222 132.59C230.481 133.331 229.476 133.748 228.427 133.75Z" fill="#F0F0F0"/>
<path d="M231.422 112.986H171.559C170.458 112.984 169.403 112.546 168.624 111.768C167.846 110.99 167.408 109.934 167.407 108.833V106.865C167.408 105.764 167.846 104.708 168.624 103.93C169.403 103.151 170.458 102.713 171.559 102.712H231.422C232.523 102.713 233.578 103.151 234.357 103.93C235.135 104.708 235.573 105.764 235.574 106.865V108.833C235.573 109.934 235.135 110.99 234.357 111.768C233.578 112.546 232.523 112.984 231.422 112.986ZM171.559 103.503C170.668 103.504 169.813 103.858 169.183 104.489C168.553 105.119 168.199 105.973 168.198 106.865V108.833C168.199 109.724 168.553 110.579 169.183 111.209C169.813 111.839 170.668 112.194 171.559 112.195H231.422C232.313 112.194 233.167 111.839 233.798 111.209C234.428 110.579 234.782 109.724 234.783 108.833V106.865C234.782 105.973 234.428 105.119 233.798 104.489C233.167 103.858 232.313 103.504 231.422 103.503H171.559Z" fill="#3F3D56"/>
<path d="M231.422 129.955H171.559C170.458 129.953 169.403 129.515 168.624 128.737C167.846 127.958 167.408 126.903 167.407 125.802V123.834C167.408 122.733 167.846 121.677 168.624 120.899C169.403 120.12 170.458 119.682 171.559 119.681H231.422C232.523 119.682 233.578 120.12 234.357 120.899C235.135 121.677 235.573 122.733 235.574 123.834V125.802C235.573 126.903 235.135 127.958 234.357 128.737C233.578 129.515 232.523 129.953 231.422 129.955ZM171.559 120.472C170.668 120.473 169.813 120.827 169.183 121.458C168.553 122.088 168.199 122.942 168.198 123.834V125.802C168.199 126.693 168.553 127.548 169.183 128.178C169.813 128.808 170.668 129.163 171.559 129.164H231.422C232.313 129.163 233.167 128.808 233.798 128.178C234.428 127.548 234.782 126.693 234.783 125.802V123.834C234.782 122.942 234.428 122.088 233.798 121.458C233.167 120.827 232.313 120.473 231.422 120.472H171.559Z" fill="#3F3D56"/>
<path d="M249.612 25.7094V63.8296C243.555 65.4231 237.213 65.606 231.074 64.364C224.935 63.122 219.163 60.4884 214.202 56.6656C209.241 52.8429 205.222 47.933 202.456 42.3137C199.69 36.6943 198.25 30.5153 198.246 24.2521C198.246 23.1341 198.291 22.0278 198.381 20.9331H220.855C221.932 20.9342 222.994 20.67 223.945 20.1639C224.896 19.6577 225.708 18.9253 226.31 18.0311C226.911 17.1369 227.283 16.1085 227.392 15.0366C227.502 13.9647 227.347 12.8822 226.939 11.8847H235.783C237.599 11.884 239.397 12.2411 241.075 12.9356C242.753 13.6301 244.277 14.6483 245.561 15.9321C246.846 17.2159 247.864 18.7401 248.56 20.4178C249.255 22.0954 249.612 23.8935 249.612 25.7094Z" fill="#F0F0F0"/>
<path d="M188.265 212.407C188.265 213.211 188.235 214.004 188.17 214.788H167.677C165.862 214.788 164.064 214.431 162.387 213.736C160.709 213.041 159.185 212.023 157.902 210.739C156.618 209.455 155.599 207.931 154.905 206.254C154.21 204.577 153.852 202.779 153.853 200.963V182.218C158.148 181.659 162.513 182.022 166.657 183.283C170.801 184.544 174.629 186.674 177.885 189.531C181.142 192.388 183.752 195.905 185.541 199.85C187.331 203.795 188.259 208.076 188.265 212.407H188.265Z" fill="#6D60DB"/>
<path d="M22.9858 179.516C23.5616 179.769 24.2144 179.783 24.8009 179.556C25.3874 179.329 25.8598 178.878 26.1145 178.303L44.5752 136.463C44.9977 135.506 45.1268 134.445 44.9462 133.414C44.7655 132.383 44.2832 131.429 43.5603 130.672C42.8374 129.915 41.9063 129.39 40.8848 129.162C39.8632 128.935 38.7972 129.015 37.8214 129.394H37.8214C36.694 129.824 35.7507 130.632 35.1518 131.68C35.0566 131.845 34.9702 132.016 34.893 132.191L16.4323 174.03C16.3065 174.316 16.238 174.623 16.2309 174.934C16.2238 175.246 16.2781 175.556 16.3908 175.846C16.5034 176.137 16.6722 176.402 16.8875 176.628C17.1027 176.853 17.3603 177.034 17.6454 177.159L22.9858 179.516Z" fill="#6D60DB"/>
<path d="M43.8174 153.64L25.5573 149.582L30.0769 137.626C30.8468 134.704 32.6386 132.154 35.1273 130.44C37.616 128.726 40.6367 127.96 43.6415 128.282L43.8174 128.301L43.8174 153.64Z" fill="#2F2E41"/>
<path d="M80.6997 180.114C80.1626 180.113 79.6373 179.957 79.1873 179.663C78.7373 179.37 78.3818 178.953 78.1639 178.462L59.7033 136.623C59.1162 135.292 59.0616 133.786 59.5507 132.416C60.0399 131.046 61.0356 129.915 62.333 129.256C63.6305 128.598 65.1309 128.462 66.5256 128.876C67.9204 129.29 69.1034 130.223 69.8313 131.483V131.483C69.9336 131.661 70.0263 131.844 70.1091 132.032L88.5698 173.871C88.8662 174.543 88.8836 175.305 88.6182 175.989C88.3528 176.674 87.8263 177.225 87.1546 177.521L81.6331 179.957L81.6303 179.951C81.3318 180.059 81.017 180.114 80.6997 180.114Z" fill="#6D60DB"/>
<path d="M55.1637 165.747C54.5346 165.747 53.9315 165.998 53.4866 166.442C53.0418 166.887 52.7915 167.49 52.7908 168.12V216.769C52.7915 217.398 53.0418 218.001 53.4866 218.446C53.9315 218.891 54.5346 219.141 55.1637 219.142H61.0008C61.6299 219.141 62.2331 218.891 62.6779 218.446C63.1228 218.001 63.373 217.398 63.3737 216.769V168.12C63.373 167.49 63.1228 166.887 62.6779 166.442C62.2331 165.998 61.6299 165.747 61.0008 165.747H55.1637Z" fill="#6D60DB"/>
<path d="M43.6187 165.747C42.9896 165.747 42.3865 165.998 41.9416 166.442C41.4968 166.887 41.2466 167.49 41.2458 168.12V216.769C41.2466 217.398 41.4968 218.001 41.9416 218.446C42.3865 218.891 42.9896 219.141 43.6187 219.142H49.4559C50.085 219.141 50.6881 218.891 51.133 218.446C51.5778 218.001 51.8281 217.398 51.8288 216.769V168.12C51.8281 167.49 51.5778 166.887 51.133 166.442C50.6881 165.998 50.085 165.747 49.4559 165.747H43.6187Z" fill="#6D60DB"/>
<path d="M52.1354 114.778C63.2747 114.778 72.3049 105.748 72.3049 94.6083C72.3049 83.469 63.2747 74.4388 52.1354 74.4388C40.9961 74.4388 31.9659 83.469 31.9659 94.6083C31.9659 105.748 40.9961 114.778 52.1354 114.778Z" fill="#6D60DB"/>
<path d="M58.8474 103.075C60.1549 103.039 61.782 102.993 63.0356 102.078C63.4089 101.794 63.7156 101.432 63.9342 101.017C64.1528 100.602 64.2781 100.144 64.3012 99.676C64.3239 99.3432 64.2693 99.0095 64.1416 98.7013C64.014 98.393 63.8168 98.1185 63.5654 97.8991C62.9107 97.3458 61.9547 97.216 60.9243 97.5188L61.9918 89.7177L61.2082 89.6104L59.9532 98.7816L60.6076 98.4813C61.3663 98.1333 62.4077 97.9562 63.0549 98.5031C63.2138 98.6461 63.3376 98.8238 63.4167 99.0224C63.4957 99.221 63.5279 99.4351 63.5108 99.6482C63.4916 99.9968 63.3975 100.337 63.235 100.646C63.0725 100.955 62.8454 101.226 62.569 101.439C61.5935 102.151 60.2965 102.243 58.8254 102.284L58.8474 103.075Z" fill="#2F2E41"/>
<path d="M70.1271 90.3905H65.8671V91.1815H70.1271V90.3905Z" fill="#2F2E41"/>
<path d="M56.6808 90.3905H52.4208V91.1815H56.6808V90.3905Z" fill="#2F2E41"/>
<path d="M72.1205 180.36L64.861 127.365C64.7832 126.797 64.5021 126.276 64.0699 125.899C63.6377 125.522 63.0835 125.315 62.51 125.315H57.0304C57.0532 125.184 57.0651 125.052 57.0659 124.919V122.942C57.0659 122.312 56.8159 121.709 56.3709 121.264C55.9259 120.819 55.3224 120.569 54.6931 120.569H49.9473C49.318 120.569 48.7144 120.819 48.2694 121.264C47.8244 121.709 47.5744 122.312 47.5744 122.942V124.919C47.5752 125.052 47.5871 125.184 47.61 125.315H42.1304C41.5568 125.315 41.0027 125.522 40.5705 125.899C40.1382 126.276 39.8572 126.797 39.7793 127.365L32.5199 180.36C32.4739 180.695 32.5003 181.037 32.5974 181.362C32.6945 181.686 32.8599 181.986 33.0827 182.242C33.3054 182.497 33.5802 182.702 33.8886 182.842C34.1971 182.982 34.5319 183.055 34.8707 183.055H69.7696C70.1084 183.055 70.4433 182.982 70.7517 182.842C71.0601 182.702 71.3349 182.497 71.5577 182.242C71.7804 181.986 71.9459 181.686 72.0429 181.362C72.14 181.037 72.1664 180.695 72.1205 180.36Z" fill="#2F2E41"/>
<path d="M60.823 153.64V128.301L60.9989 128.282C64.0074 127.96 67.0315 128.728 69.5217 130.447C72.012 132.165 73.8032 134.72 74.57 137.647L79.083 149.582L60.823 153.64Z" fill="#2F2E41"/>
<path d="M51.1197 115.407L37.169 109.992C34.8878 109.107 32.5938 108.248 30.3246 107.332C29.3526 106.994 28.4572 106.466 27.6901 105.78C27.0222 105.073 26.567 104.192 26.3767 103.238C25.8928 101.193 25.9803 98.9568 26.0148 96.8697C26.0416 94.5865 26.2295 92.3081 26.5771 90.0514C27.1863 85.8106 28.617 81.7294 30.789 78.0365C34.7014 71.6173 41.4422 66.7877 49.1958 67.1731C52.7855 67.3515 56.3958 68.6396 59.0628 71.0939C59.341 71.4264 59.6532 71.7289 59.9942 71.9966C60.2312 72.0855 60.4892 72.1028 60.736 72.0464C61.0615 72.0254 61.3872 72.0094 61.7132 71.9984C62.8443 71.9507 63.9775 71.9982 65.1007 72.1405C67.1475 72.3616 69.0875 73.1672 70.6889 74.4609C72.0218 75.6075 73.1062 77.226 73.2178 79.0247C73.2717 79.8504 73.1352 80.6775 72.8188 81.4421C72.5024 82.2066 72.0146 82.8883 71.393 83.4345C69.7286 84.8373 67.3539 84.3442 65.3574 84.2385L58.0435 83.851L54.3378 83.6546C53.5748 83.6142 53.577 84.8008 54.3378 84.8411L64.1872 85.3629C65.77 85.4467 67.4012 85.6523 68.9853 85.5573C70.2025 85.5022 71.3647 85.0347 72.2809 84.2316C73.1177 83.4629 73.741 82.4904 74.0901 81.4091C74.4392 80.3278 74.5022 79.1745 74.2728 78.0616C73.765 75.6343 71.9585 73.6264 69.8408 72.4319C66.9593 70.8066 63.5179 70.6509 60.2936 70.8911L60.7131 71.0649C57.0659 67.1504 51.4792 65.4976 46.2344 66.076C40.6968 66.6867 35.7716 69.776 32.2328 74.0004C28.2873 78.7103 26.1373 84.5833 25.3014 90.6224C24.8665 93.8829 24.7233 97.1758 24.8735 100.462C24.8673 101.911 25.1153 103.35 25.6061 104.714C26.166 106.041 27.1785 107.126 28.4635 107.777C29.9366 108.488 31.4511 109.11 32.9988 109.64L38.1385 111.635L48.2345 115.554L50.8043 116.551C51.5165 116.828 51.8251 115.681 51.1197 115.407Z" fill="#2F2E41"/>
<path d="M29.1846 75.0887C27.9722 75.0887 26.787 74.7292 25.779 74.0557C24.7709 73.3821 23.9852 72.4247 23.5212 71.3046C23.0573 70.1845 22.9359 68.952 23.1724 67.7629C23.4089 66.5738 23.9928 65.4816 24.85 64.6243C25.7073 63.767 26.7996 63.1832 27.9887 62.9466C29.1778 62.7101 30.4103 62.8315 31.5304 63.2955C32.6505 63.7594 33.6079 64.5451 34.2814 65.5532C34.955 66.5613 35.3145 67.7464 35.3145 68.9588C35.3127 70.584 34.6663 72.1421 33.5171 73.2913C32.3679 74.4405 30.8098 75.0869 29.1846 75.0887ZM29.1846 64.0153C28.2068 64.0153 27.2511 64.3052 26.4381 64.8484C25.6252 65.3916 24.9915 66.1637 24.6174 67.067C24.2432 67.9703 24.1453 68.9643 24.3361 69.9232C24.5268 70.8822 24.9976 71.763 25.689 72.4544C26.3804 73.1458 27.2612 73.6166 28.2201 73.8073C29.1791 73.9981 30.1731 73.9002 31.0764 73.526C31.9797 73.1518 32.7517 72.5182 33.2949 71.7053C33.8381 70.8923 34.1281 69.9365 34.1281 68.9588C34.1266 67.6482 33.6053 66.3916 32.6785 65.4648C31.7518 64.5381 30.4952 64.0168 29.1846 64.0153Z" fill="#2F2E41"/>
<path d="M131.655 113.077L118.387 102.929L108.239 116.197L121.507 126.344L131.655 113.077Z" fill="#F0F0F0"/>
<path d="M56.6705 22.4899C58.7668 22.4883 60.8344 22.9775 62.7077 23.9185C64.581 24.8595 66.2079 26.2261 67.4581 27.9088L75.2055 17.7791L51.9596 0L34.1806 23.2459L44.1995 30.9087C45.2021 28.4221 46.9251 26.2919 49.1473 24.7918C51.3695 23.2917 53.9893 22.4901 56.6705 22.4899Z" fill="#F0F0F0"/>
<path d="M279.605 219.834H0.39548C0.290592 219.834 0.19 219.793 0.115833 219.718C0.0416662 219.644 0 219.544 0 219.439C0 219.334 0.0416662 219.233 0.115833 219.159C0.19 219.085 0.290592 219.043 0.39548 219.043H279.605C279.709 219.043 279.81 219.085 279.884 219.159C279.958 219.233 280 219.334 280 219.439C280 219.544 279.958 219.644 279.884 219.718C279.81 219.793 279.709 219.834 279.605 219.834Z" fill="#3F3D56"/>
<path d="M211.458 154.212H183.038C181.99 154.211 180.984 153.794 180.243 153.052C179.502 152.311 179.085 151.306 179.083 150.257V148.289C179.085 147.24 179.502 146.235 180.243 145.494C180.984 144.752 181.99 144.335 183.038 144.334H211.458C212.507 144.335 213.512 144.752 214.253 145.494C214.995 146.235 215.412 147.24 215.413 148.289V150.257C215.412 151.306 214.995 152.311 214.253 153.052C213.512 153.794 212.507 154.211 211.458 154.212Z" fill="#6D60DB"/>
<path d="M214.453 150.417H186.033C184.932 150.416 183.876 149.978 183.098 149.2C182.319 148.421 181.881 147.366 181.88 146.265V144.296C181.881 143.195 182.319 142.14 183.098 141.361C183.876 140.583 184.932 140.145 186.033 140.144H214.453C215.554 140.145 216.609 140.583 217.388 141.361C218.166 142.14 218.604 143.195 218.605 144.296V146.265C218.604 147.366 218.166 148.421 217.388 149.2C216.609 149.978 215.554 150.416 214.453 150.417ZM186.033 140.935C185.141 140.936 184.287 141.29 183.657 141.92C183.027 142.55 182.672 143.405 182.671 144.296V146.265C182.672 147.156 183.027 148.01 183.657 148.64C184.287 149.271 185.141 149.625 186.033 149.626H214.453C215.344 149.625 216.199 149.271 216.829 148.64C217.459 148.01 217.813 147.156 217.814 146.265V144.296C217.813 143.405 217.459 142.55 216.829 141.92C216.199 141.29 215.344 140.936 214.453 140.935H186.033Z" fill="#3F3D56"/>
</g>
</svg>
