<svg width="144" height="334" viewBox="0 0 144 334" fill="none" xmlns="http://www.w3.org/2000/svg">
<defs>
<linearGradient id="paint0_linear_49_564" x1="71.69" y1="351.98" x2="71.69" y2="302.29" gradientUnits="userSpaceOnUse">
<stop/>
<stop offset="1" stop-opacity="0"/>
</linearGradient>
<linearGradient id="paint1_linear_49_564" x1="10269.6" y1="5801.09" x2="10269.1" y2="5468.54" gradientUnits="userSpaceOnUse">
<stop/>
<stop offset="1" stop-opacity="0"/>
</linearGradient>
<linearGradient id="paint2_linear_49_564" x1="1989.79" y1="1119.72" x2="1996.41" y2="1175.14" gradientUnits="userSpaceOnUse">
<stop/>
<stop offset="1" stop-opacity="0"/>
</linearGradient>
<linearGradient id="paint3_linear_49_564" x1="1812.4" y1="964.441" x2="1816.8" y2="1011.73" gradientUnits="userSpaceOnUse">
<stop/>
<stop offset="1" stop-opacity="0"/>
</linearGradient>
<linearGradient id="paint4_linear_49_564" x1="95.4691" y1="240.46" x2="61.9681" y2="120.342" gradientUnits="userSpaceOnUse">
<stop stop-color="#2F0CEE"/>
<stop offset="1" stop-color="#4FCEEE" stop-opacity="0"/>
</linearGradient>
<linearGradient id="paint5_linear_49_564" x1="78.8932" y1="212.81" x2="71.2944" y2="208.151" gradientUnits="userSpaceOnUse">
<stop stop-color="#4731D8"/>
<stop offset="1" stop-color="#4FCEEE" stop-opacity="0"/>
</linearGradient>
<linearGradient id="paint6_linear_49_564" x1="4775.78" y1="4034.17" x2="4089.88" y2="3641.54" gradientUnits="userSpaceOnUse">
<stop/>
<stop offset="1" stop-opacity="0"/>
</linearGradient>
<linearGradient id="paint7_linear_49_564" x1="13629" y1="16330.8" x2="11233.5" y2="13923.8" gradientUnits="userSpaceOnUse">
<stop/>
<stop offset="1" stop-opacity="0"/>
</linearGradient>
<linearGradient id="paint8_linear_49_564" x1="20.1315" y1="244.24" x2="65.2477" y2="251.921" gradientUnits="userSpaceOnUse">
<stop stop-color="#4FCEEE"/>
<stop offset="1" stop-color="#EDA0EF" stop-opacity="0"/>
</linearGradient>
<linearGradient id="paint9_linear_49_564" x1="20.1315" y1="244.24" x2="65.2477" y2="251.921" gradientUnits="userSpaceOnUse">
<stop stop-color="#4FCEEE"/>
<stop offset="1" stop-color="#EDA0EF" stop-opacity="0"/>
</linearGradient>
<linearGradient id="paint10_linear_49_564" x1="124.657" y1="291.871" x2="124.649" y2="291.872" gradientUnits="userSpaceOnUse">
<stop/>
<stop offset="1" stop-opacity="0"/>
</linearGradient>
<linearGradient id="paint11_linear_49_564" x1="185.185" y1="396.253" x2="185.066" y2="396.275" gradientUnits="userSpaceOnUse">
<stop/>
<stop offset="1" stop-opacity="0"/>
</linearGradient>
<linearGradient id="paint12_linear_49_564" x1="2739.52" y1="1614.54" x2="2789.17" y2="1840.92" gradientUnits="userSpaceOnUse">
<stop/>
<stop offset="1" stop-opacity="0"/>
</linearGradient>
<linearGradient id="paint13_linear_49_564" x1="86.5334" y1="204.09" x2="73.6128" y2="196.857" gradientUnits="userSpaceOnUse">
<stop stop-color="#7A73F7"/>
<stop offset="1" stop-color="#7A73F7" stop-opacity="0"/>
</linearGradient>
<linearGradient id="paint14_linear_49_564" x1="3287.12" y1="8719.22" x2="3170.35" y2="8753.3" gradientUnits="userSpaceOnUse">
<stop stop-color="#7A73F7"/>
<stop offset="1" stop-color="#7A73F7" stop-opacity="0"/>
</linearGradient>
<linearGradient id="paint15_linear_49_564" x1="86.1677" y1="184.645" x2="83.4131" y2="186.71" gradientUnits="userSpaceOnUse">
<stop stop-color="#4FCEEE"/>
<stop offset="1" stop-color="#4FCEEE" stop-opacity="0"/>
</linearGradient>
<linearGradient id="paint16_linear_49_564" x1="5196.86" y1="484.046" x2="9708.95" y2="484.046" gradientUnits="userSpaceOnUse">
<stop/>
<stop offset="1" stop-opacity="0"/>
</linearGradient>
<linearGradient id="paint17_linear_49_564" x1="5980.21" y1="255.599" x2="14733.6" y2="255.599" gradientUnits="userSpaceOnUse">
<stop/>
<stop offset="1" stop-opacity="0"/>
</linearGradient>
<linearGradient id="paint18_linear_49_564" x1="3727.18" y1="540.528" x2="5401.35" y2="540.528" gradientUnits="userSpaceOnUse">
<stop/>
<stop offset="1" stop-opacity="0"/>
</linearGradient>
</defs>
<path d="M71.69 322.3C111.283 322.3 143.38 315.378 143.38 306.84C143.38 298.302 111.283 291.38 71.69 291.38C32.0967 291.38 0 298.302 0 306.84C0 315.378 32.0967 322.3 71.69 322.3Z" fill="#7262CC"/>
<path style="mix-blend-mode:overlay" d="M71.69 322.3C111.283 322.3 143.38 315.378 143.38 306.84C143.38 298.302 111.283 291.38 71.69 291.38C32.0967 291.38 0 298.302 0 306.84C0 315.378 32.0967 322.3 71.69 322.3Z" fill="url(#paint0_linear_49_564)"/>
<path style="mix-blend-mode:overlay" d="M1.51 309.52C1.51 300.99 33.61 294.07 73.2 294.07C107.66 294.07 136.43 299.31 143.31 306.3C142 298 110.44 291.39 71.69 291.39C32.1 291.39 0 298.3 0 306.84C0.0368768 307.454 0.194547 308.054 0.463966 308.607C0.733384 309.159 1.10925 309.653 1.57 310.06C1.53468 309.882 1.51461 309.701 1.51 309.52Z" fill="url(#paint1_linear_49_564)"/>
<path d="M105.289 165.362C107.47 161.95 117.48 150.897 113.249 144.254C109.018 137.611 100.367 147.757 100.367 147.757L105.289 165.362Z" fill="#7D73C3"/>
<path d="M122.402 206.69L137.238 220.895C137.238 220.895 135.419 226.208 127.978 223.309C120.536 220.41 114.022 210.326 114.022 210.326L122.402 206.69Z" fill="#7D73C3"/>
<path style="mix-blend-mode:overlay" d="M130.448 214.368L124.955 209.105L119.312 212.059C121.508 213.047 127.652 214.983 130.448 214.368Z" fill="url(#paint2_linear_49_564)"/>
<path d="M118.173 186.906L136.514 207.06C136.514 207.06 133.735 213.609 126.3 210.697C118.866 207.786 109.793 190.542 109.793 190.542L118.173 186.906Z" fill="#7D73C3"/>
<path style="mix-blend-mode:overlay" d="M124.2 193.527L119.654 188.545L113.718 191.372C115.888 192.419 121.378 194.046 124.2 193.527Z" fill="url(#paint3_linear_49_564)"/>
<g style="mix-blend-mode:screen">
<path d="M129.668 199.533C129.447 200.639 129.486 201.781 129.782 202.87C130.078 203.958 130.623 204.963 131.374 205.805C133.932 208.467 136.508 207.041 136.508 207.041L129.668 199.533Z" fill="#6D658C"/>
</g>
<path d="M112.527 175.177L129.749 182.184C129.749 182.184 129.795 189.29 121.81 189.575C113.825 189.861 106.24 181.86 106.24 181.86L112.527 175.177Z" fill="#7D73C3"/>
<g style="mix-blend-mode:screen">
<path d="M120.579 178.49L129.757 182.213C128.98 183.071 127.935 183.64 126.793 183.828C125.651 184.017 124.479 183.812 123.468 183.249C119.568 181.366 120.579 178.49 120.579 178.49Z" fill="#6D658C"/>
</g>
<g style="mix-blend-mode:screen">
<path d="M131.374 215.256C131.113 216.084 131.096 216.97 131.324 217.808C131.552 218.647 132.015 219.402 132.66 219.984C133.268 220.53 134.017 220.897 134.821 221.044C135.626 221.191 136.455 221.113 137.218 220.817L131.374 215.256Z" fill="#6D658C"/>
</g>
<path d="M51.3884 237.005L45.6579 215.93C44.8845 213.207 45.0355 210.305 46.0872 207.677C47.139 205.049 49.0322 202.844 51.4707 201.406L51.6733 201.351C57.8618 197.927 58.6915 230.211 58.6915 230.211L51.3884 237.005Z" fill="#7D73C3"/>
<path d="M31.2711 116.107L87.0459 100.942C88.9398 100.427 90.9606 100.685 92.6639 101.66C94.3672 102.635 95.6134 104.247 96.1283 106.141L129.627 229.338C130.141 231.229 129.883 233.247 128.909 234.948C127.936 236.649 126.326 237.893 124.435 238.408L65.1861 254.518C64.2085 254.784 63.1653 254.65 62.286 254.147C61.4068 253.644 60.7635 252.812 60.4976 251.834L26.0623 125.192C25.8071 124.254 25.7394 123.274 25.8631 122.31C25.9869 121.345 26.2995 120.414 26.7833 119.57C27.2671 118.726 27.9124 117.986 28.6825 117.392C29.4525 116.798 30.3322 116.361 31.2711 116.107Z" fill="#211645"/>
<path d="M87.5629 103.527L71.9103 107.855C71.7475 107.907 71.6091 108.015 71.5209 108.162C71.4328 108.308 71.4011 108.481 71.4317 108.649C71.6141 109.844 71.3573 111.065 70.7088 112.085C70.0602 113.106 69.0639 113.856 67.9043 114.199L53.6422 118.077C52.4689 118.369 51.2296 118.226 50.1536 117.674C49.0777 117.123 48.238 116.2 47.7901 115.077C47.7315 114.917 47.6164 114.784 47.4664 114.702C47.3164 114.621 47.1419 114.597 46.9756 114.635L32.1161 118.603C31.491 118.78 30.9069 119.078 30.3972 119.481C29.8875 119.884 29.4623 120.383 29.1458 120.951C28.8294 121.518 28.628 122.142 28.5531 122.787C28.4782 123.433 28.5313 124.086 28.7094 124.711L61.9981 247.136C62.1609 247.765 62.4461 248.356 62.8374 248.874C63.2288 249.393 63.7186 249.829 64.2787 250.158C64.8389 250.487 65.4584 250.702 66.1019 250.791C66.7454 250.881 67.4001 250.842 68.0287 250.678L123.475 235.601C124.102 235.426 124.687 235.128 125.198 234.725C125.709 234.323 126.135 233.823 126.453 233.256C126.77 232.688 126.973 232.063 127.048 231.417C127.123 230.771 127.07 230.116 126.892 229.491L93.5979 107.047C93.4328 106.419 93.1457 105.83 92.753 105.314C92.3604 104.798 91.8698 104.364 91.3094 104.037C90.749 103.71 90.1297 103.497 89.4869 103.409C88.8441 103.322 88.1903 103.362 87.5629 103.527Z" fill="#F4F4F4"/>
<path opacity="0.5" d="M87.5629 103.527L71.9103 107.855C71.7475 107.907 71.6091 108.015 71.5209 108.162C71.4328 108.308 71.4011 108.481 71.4317 108.649C71.6141 109.844 71.3573 111.065 70.7088 112.085C70.0602 113.106 69.0639 113.856 67.9043 114.199L53.6422 118.077C52.4689 118.369 51.2296 118.226 50.1536 117.674C49.0777 117.123 48.238 116.2 47.7901 115.077C47.7315 114.917 47.6164 114.784 47.4664 114.702C47.3164 114.621 47.1419 114.597 46.9756 114.635L32.1161 118.603C31.491 118.78 30.9069 119.078 30.3972 119.481C29.8875 119.884 29.4623 120.383 29.1458 120.951C28.8294 121.518 28.628 122.142 28.5531 122.787C28.4782 123.433 28.5313 124.086 28.7094 124.711L61.9981 247.136C62.1609 247.765 62.4461 248.356 62.8374 248.874C63.2288 249.393 63.7186 249.829 64.2787 250.158C64.8389 250.487 65.4584 250.702 66.1019 250.791C66.7454 250.881 67.4001 250.842 68.0287 250.678L123.475 235.601C124.102 235.426 124.687 235.128 125.198 234.725C125.709 234.323 126.135 233.823 126.453 233.256C126.77 232.688 126.973 232.063 127.048 231.417C127.123 230.771 127.07 230.116 126.892 229.491L93.5979 107.047C93.4328 106.419 93.1457 105.83 92.753 105.314C92.3604 104.798 91.8698 104.364 91.3094 104.037C90.749 103.71 90.1297 103.497 89.4869 103.409C88.8441 103.322 88.1903 103.362 87.5629 103.527Z" fill="url(#paint4_linear_49_564)"/>
<path opacity="0.2" d="M86.589 245.61C86.589 245.61 76.094 229.614 76.8538 214.266C77.1486 208.3 81.7819 204.035 85.4373 198.46C89.4699 191.644 87.0807 184.915 85.0466 182.846C84.1991 181.978 81.2884 180.458 78.0589 184.207C72.3723 195.422 60.9831 221.566 60.9831 221.566L79.731 247.143L86.589 245.61Z" fill="url(#paint5_linear_49_564)"/>
<path d="M78.8477 176.169C86.4686 174.096 90.9668 166.239 88.8945 158.618C86.8223 150.997 78.9644 146.498 71.3435 148.571C63.7225 150.643 59.2244 158.501 61.2966 166.122C63.3688 173.743 71.2267 178.241 78.8477 176.169Z" fill="#968CED"/>
<path style="mix-blend-mode:overlay" opacity="0.5" d="M78.8477 176.169C86.4686 174.096 90.9668 166.239 88.8945 158.618C86.8223 150.997 78.9644 146.498 71.3435 148.571C63.7225 150.643 59.2244 158.501 61.2966 166.122C63.3688 173.743 71.2267 178.241 78.8477 176.169Z" fill="url(#paint6_linear_49_564)"/>
<path d="M84.5486 249.233C82.3118 236.928 75.992 230.761 75.992 230.761C74.5212 219.139 70.4435 212.528 70.4435 212.528C75.8975 209.718 82.4099 199.025 85.1252 193.271C87.8406 187.517 82.2428 181.069 80.5115 182.286C78.7801 183.503 56.9501 201.968 56.172 203.299C53.959 209.414 48.2504 229.962 53.6296 263.122C52.8596 265.321 50.6996 276.624 48.4863 288.76C46.1154 301.84 43.3115 316.411 42.5178 321C45.279 321.36 49.4982 321.604 54.2904 321.766C60.2088 321.966 67.001 322.043 73 322.064C81.8777 322.094 89.0182 322 89.0182 322C91.2921 310.811 94.0819 285.398 94.8651 277.341C95.4784 271.288 95.7515 267.338 95.7515 267.338C102.63 254.524 103.443 244.095 103.443 244.095L84.5486 249.233Z" fill="#7262CC"/>
<path d="M54.2904 321.766C73.0699 322.843 80.1488 322.422 89.0182 322C89.0182 322 81.8777 322.094 73 322.064C67.001 322.043 60.2088 321.966 54.2904 321.766Z" fill="#7262CC"/>
<path style="mix-blend-mode:overlay" d="M103.477 244.107L97.4075 245.757C93.5749 267.525 57.3351 305.256 42.4945 320.079L42.4117 320.537C51.4799 319.014 61.4493 316.842 71.813 314.024C78.1142 312.311 84.1603 310.46 89.8679 308.545C92.1419 297.356 94.0726 285.401 94.8558 277.343C95.4691 271.29 95.7422 267.34 95.7422 267.34C102.484 254.823 103.434 244.595 103.477 244.107Z" fill="url(#paint7_linear_49_564)"/>
<g style="mix-blend-mode:overlay" opacity="0.3">
<path d="M103.477 244.107L97.4075 245.757C93.5749 267.525 57.3351 305.256 42.4945 320.079L42.4117 320.537C69.5182 323.5 82.6139 321.883 90.0182 320.537C92.2921 309.348 94.0726 285.401 94.8558 277.343C95.4691 271.29 95.7422 267.34 95.7422 267.34C102.484 254.823 103.434 244.595 103.477 244.107Z" fill="#C4C4C4"/>
</g>
<path style="mix-blend-mode:overlay" d="M69.2591 253.411C64.3931 230.37 51.565 201.868 83.0199 183.242C82.9086 183.137 82.8096 183.04 82.7035 182.955L82.5703 182.846C82.4281 182.727 82.2775 182.619 82.1198 182.523C82.0531 182.474 81.9825 182.431 81.9085 182.394L81.7025 182.284L81.4043 182.178L81.2895 182.137C81.1686 182.115 81.0451 182.11 80.9229 182.123L80.836 182.146C80.7181 182.152 80.603 182.184 80.4983 182.238C78.7547 183.448 56.937 201.92 56.1589 203.251C54.669 207.49 51.5182 218.389 51.393 235.46C51.3786 237.122 51.3966 238.827 51.4505 240.626C51.6752 248.165 52.4032 255.68 53.6295 263.122L53.4792 263.598L53.4976 263.666C53.4431 263.846 53.3868 264.059 53.3287 264.302L53.2997 264.424C53.2416 264.668 53.1791 264.934 53.1026 265.224L53.1262 265.311C53.0549 265.62 52.9793 265.952 52.9088 266.303C52.8314 266.666 52.7399 267.053 52.6562 267.47L52.6298 267.601L52.3578 268.888L52.334 269.029C52.0312 270.469 51.7011 272.113 51.3594 273.905L51.3778 273.973C51.2589 274.565 51.1453 275.176 51.0273 275.809L51.0404 275.858C50.2999 279.727 49.4809 284.147 48.6521 288.684C46.2811 301.764 43.3709 315.872 42.5771 320.461C47.0858 319.701 51.8121 318.789 56.6999 317.709C57.5782 290.64 72.9348 270.816 69.2591 253.411Z" fill="url(#paint8_linear_49_564)"/>
<path style="mix-blend-mode:overlay" d="M69.2591 253.411C64.3931 230.37 51.565 201.868 83.0199 183.242C82.9086 183.137 82.8096 183.04 82.7035 182.955L82.5703 182.846C82.4281 182.727 82.2775 182.619 82.1198 182.523C82.0531 182.474 81.9825 182.431 81.9085 182.394L81.7025 182.284L81.4043 182.178L81.2895 182.137C81.1686 182.115 81.0451 182.11 80.9229 182.123L80.836 182.146C80.7181 182.152 80.603 182.184 80.4983 182.238C78.7547 183.448 56.937 201.92 56.1589 203.251C54.669 207.49 51.5182 218.389 51.393 235.46C51.3786 237.122 51.3966 238.827 51.4505 240.626C51.6752 248.165 52.4032 255.68 53.6295 263.122L53.4792 263.598L53.4976 263.666C53.4431 263.846 53.3868 264.059 53.3287 264.302L53.2997 264.424C53.2416 264.668 53.1791 264.934 53.1026 265.224L53.1262 265.311C53.0549 265.62 52.9793 265.952 52.9088 266.303C52.8314 266.666 52.7399 267.053 52.6562 267.47L52.6298 267.601L52.3578 268.888L52.334 269.029C52.0312 270.469 51.7011 272.113 51.3594 273.905L51.3778 273.973C51.2589 274.565 51.1453 275.176 51.0273 275.809L51.0404 275.858C50.2999 279.727 49.4809 284.147 48.6521 288.684C46.2811 301.764 43.3709 315.872 42.5771 320.461C47.0858 319.701 51.8121 318.789 56.6999 317.709C57.5782 290.64 72.9348 270.816 69.2591 253.411Z" fill="url(#paint9_linear_49_564)"/>
<g style="mix-blend-mode:screen">
<path d="M70.4263 190.625C70.4263 190.625 73.345 193.127 77.9599 189.861C82.5748 186.596 80.5039 182.257 80.5039 182.257L70.4263 190.625Z" fill="#6D658C"/>
</g>
<path style="mix-blend-mode:overlay" d="M102.374 250.23L102.414 250.033L102.374 250.23Z" fill="url(#paint10_linear_49_564)"/>
<path style="mix-blend-mode:overlay" d="M102.078 251.389L102.26 250.686L102.078 251.389Z" fill="url(#paint11_linear_49_564)"/>
<path style="mix-blend-mode:overlay" d="M101.464 253.587C102.448 250.494 103.124 247.311 103.481 244.085L84.5484 249.233C88.0323 253.508 96.3834 254.989 101.464 253.587Z" fill="url(#paint12_linear_49_564)"/>
<path d="M70.4435 212.528C75.8975 209.718 82.4098 199.025 85.1252 193.271C85.6511 192.064 85.892 190.753 85.8292 189.438C85.7665 188.123 85.4018 186.841 84.7635 185.69C78.4871 190.506 70.7224 199.871 70.4435 212.528Z" fill="url(#paint13_linear_49_564)"/>
<path d="M70.4429 212.528C63.4747 232.102 84.5751 249.256 84.5751 249.256C82.3383 236.952 76.0185 230.784 76.0185 230.784C74.5206 219.139 70.4429 212.528 70.4429 212.528Z" fill="url(#paint14_linear_49_564)"/>
<path d="M85.6406 191.586C86.7988 186.318 82.0886 181.153 80.4994 182.207C80.4994 182.207 85.281 186.948 83.3535 191.255C83.0161 192.072 84.3589 193.199 85.6406 191.586Z" fill="url(#paint15_linear_49_564)"/>
<path d="M78.199 63.7094C78.5335 65.6613 78.2382 67.6691 77.3559 69.4421C76.4736 71.215 75.05 72.6613 73.2912 73.5715C71.5324 74.4817 69.5296 74.8087 67.5726 74.5051C65.6156 74.2014 63.806 73.283 62.4057 71.8827C61.0054 70.4823 60.0869 68.6727 59.7833 66.7158C59.4797 64.7588 59.8067 62.756 60.7169 60.9971C61.6271 59.2383 63.0733 57.8148 64.8463 56.9325C66.6193 56.0502 68.627 55.7549 70.5789 56.0894C72.4806 56.4168 74.2342 57.3252 75.5987 58.6896C76.9632 60.0541 77.8716 61.8077 78.199 63.7094ZM48.949 48.5194L53.369 52.2594C53.7091 52.5385 54.1406 52.6816 54.5801 52.6613C55.0196 52.641 55.436 52.4586 55.7489 52.1494C62.7489 45.2094 75.1789 45.2094 82.2089 52.1494C82.5219 52.4586 82.9383 52.641 83.3778 52.6613C83.8173 52.6816 84.2488 52.5385 84.589 52.2594L89.0489 48.5394C89.235 48.3819 89.3869 48.188 89.4954 47.9696C89.6038 47.7513 89.6665 47.5131 89.6796 47.2696C89.6928 47.0262 89.656 46.7826 89.5716 46.5539C89.4872 46.3251 89.357 46.116 89.189 45.9394C86.5757 43.2156 83.4387 41.0482 79.9665 39.5677C76.4943 38.0871 72.7586 37.3239 68.9839 37.3239C65.2093 37.3239 61.4736 38.0871 58.0014 39.5677C54.5292 41.0482 51.3922 43.2156 48.779 45.9394C48.6158 46.1176 48.4905 46.327 48.4104 46.5549C48.3304 46.7829 48.2973 47.0246 48.3132 47.2657C48.3291 47.5068 48.3936 47.7421 48.5029 47.9576C48.6121 48.173 48.7639 48.3642 48.949 48.5194ZM35.7889 35.1994L40.079 39.0794C40.4047 39.3911 40.8381 39.5651 41.2889 39.5651C41.7398 39.5651 42.1732 39.3911 42.4989 39.0794C45.9698 35.583 50.0982 32.8081 54.6463 30.9144C59.1945 29.0207 64.0723 28.0458 68.9989 28.0458C73.9255 28.0458 78.8035 29.0207 83.3516 30.9144C87.8997 32.8081 92.0281 35.583 95.499 39.0794C95.8194 39.3957 96.2489 39.5772 96.699 39.5865C97.1491 39.5958 97.5857 39.4322 97.919 39.1294L102.199 35.2394C102.376 35.0774 102.519 34.8811 102.618 34.6625C102.718 34.4438 102.772 34.2073 102.777 33.9672C102.783 33.7271 102.74 33.4883 102.651 33.2653C102.562 33.0423 102.428 32.8396 102.259 32.6694C97.9178 28.2508 92.74 24.7412 87.0278 22.3454C81.3155 19.9496 75.1833 18.7158 68.989 18.7158C62.7946 18.7158 56.6624 19.9496 50.9501 22.3454C45.2379 24.7412 40.0601 28.2508 35.719 32.6694C35.5562 32.8395 35.4289 33.0402 35.3443 33.2598C35.2596 33.4795 35.2194 33.7137 35.2259 33.949C35.2324 34.1843 35.2856 34.416 35.3822 34.6306C35.4788 34.8452 35.6171 35.0386 35.7889 35.1994ZM22.6089 22.0094L26.829 25.9594C27.169 26.2752 27.6194 26.4447 28.0833 26.4316C28.5471 26.4186 28.9873 26.2238 29.309 25.8894C39.8318 15.3441 54.1116 9.40921 69.0089 9.38942C76.3858 9.35473 83.6951 10.7947 90.5076 13.6248C97.32 16.4549 103.498 20.6179 108.679 25.8694C109.001 26.2038 109.441 26.3986 109.905 26.4116C110.368 26.4247 110.819 26.2552 111.159 25.9394L115.389 21.9394C115.561 21.7794 115.699 21.587 115.795 21.3732C115.892 21.1594 115.945 20.9285 115.951 20.6941C115.958 20.4596 115.917 20.2262 115.833 20.0073C115.749 19.7885 115.621 19.5887 115.459 19.4194C109.384 13.2708 102.15 8.38918 94.1746 5.0574C86.1994 1.72562 77.6422 0.0100098 68.9989 0.0100098C60.3557 0.0100098 51.7985 1.72562 43.8233 5.0574C35.8481 8.38918 28.6135 13.2708 22.5389 19.4194C22.3642 19.589 22.2266 19.7931 22.1348 20.0186C22.043 20.2442 21.9989 20.4863 22.0055 20.7298C22.0121 20.9732 22.0691 21.2126 22.173 21.4329C22.2769 21.6532 22.4253 21.8495 22.6089 22.0094Z" fill="#7262CC"/>
<path d="M78.1988 63.7094C78.5333 65.6613 78.238 67.669 77.3557 69.442C76.4734 71.215 75.0499 72.6613 73.2911 73.5715C71.5323 74.4817 69.5294 74.8086 67.5725 74.505C65.6155 74.2014 63.8059 73.283 62.4056 71.8826C61.0052 70.4823 60.0868 68.6727 59.7832 66.7157C59.4795 64.7588 59.8065 62.7559 60.7167 60.9971C61.6269 59.2383 63.0732 57.8147 64.8462 56.9324C66.6191 56.0501 68.6269 55.7549 70.5788 56.0894C72.4805 56.4168 74.2341 57.3251 75.5986 58.6896C76.9631 60.0541 77.8714 61.8077 78.1988 63.7094Z" fill="#7262CC"/>
<g style="mix-blend-mode:screen">
<path d="M68.9989 65.5494C68.9989 65.5494 98.1289 5.88943 87.7189 2.75943C72.0283 -1.95233 55.138 -0.57396 40.4189 6.61943L68.9989 65.5494Z" fill="#7262CC"/>
</g>
<g style="mix-blend-mode:overlay" opacity="0.5">
<path style="mix-blend-mode:overlay" opacity="0.5" d="M36.6495 33.5494C45.2776 24.7646 57.0302 19.7491 69.3425 19.5974C81.6549 19.4456 93.5275 24.17 102.37 32.7394L102.26 32.6094C97.9184 28.1908 92.7406 24.6812 87.0283 22.2854C81.3161 19.8897 75.1838 18.6558 68.9895 18.6558C62.7952 18.6558 56.6629 19.8897 50.9507 22.2854C45.2384 24.6812 40.0606 28.1908 35.7195 32.6094C35.5484 32.7797 35.4138 32.9831 35.3238 33.207C35.2337 33.431 35.1902 33.671 35.1958 33.9123C35.2014 34.1536 35.2561 34.3913 35.3564 34.6109C35.4567 34.8304 35.6007 35.0273 35.7795 35.1894L36.4095 35.7594C36.1946 35.4179 36.1013 35.0138 36.1449 34.6127C36.1884 34.2115 36.3663 33.8368 36.6495 33.5494Z" fill="url(#paint16_linear_49_564)"/>
<path style="mix-blend-mode:overlay" opacity="0.5" d="M23.4595 20.3594C35.5849 8.06636 52.088 1.07976 69.3543 0.929811C86.6205 0.779866 103.242 7.4788 115.58 19.5594C115.545 19.5052 115.505 19.4549 115.46 19.4094C109.385 13.2608 102.15 8.37917 94.1752 5.04739C86.2 1.71561 77.6427 0 68.9995 0C60.3563 0 51.7991 1.71561 43.8239 5.04739C35.8486 8.37917 28.6141 13.2608 22.5395 19.4094C22.3632 19.5791 22.2241 19.7838 22.1314 20.0103C22.0386 20.2368 21.994 20.4802 22.0006 20.7249C22.0072 20.9695 22.0648 21.2102 22.1696 21.4313C22.2745 21.6525 22.4243 21.8494 22.6095 22.0094L23.2795 22.6394C23.033 22.3002 22.9157 21.8842 22.9487 21.4662C22.9817 21.0482 23.1628 20.6557 23.4595 20.3594Z" fill="url(#paint17_linear_49_564)"/>
<path style="mix-blend-mode:overlay" opacity="0.5" d="M49.7295 46.8494C54.865 41.5121 61.906 38.4271 69.311 38.2697C76.7161 38.1122 83.8818 40.8952 89.2395 46.0094C86.6263 43.2855 83.4893 41.1182 80.0171 39.6376C76.5449 38.1571 72.8092 37.3939 69.0345 37.3939C65.2598 37.3939 61.5241 38.1571 58.0519 39.6376C54.5797 41.1182 51.4427 43.2855 48.8295 46.0094C48.6615 46.186 48.5312 46.3951 48.4469 46.6238C48.3625 46.8526 48.3257 47.0961 48.3388 47.3396C48.3519 47.583 48.4146 47.8212 48.5231 48.0396C48.6315 48.2579 48.7835 48.4518 48.9695 48.6094L49.4995 49.0594C49.2833 48.719 49.1884 48.3155 49.2301 47.9144C49.2719 47.5133 49.4478 47.138 49.7295 46.8494Z" fill="url(#paint18_linear_49_564)"/>
</g>
<path d="M73.6692 67.7894L63.9492 64.3694L85.8392 2.22937L95.5592 5.66937L73.6692 67.7894Z" fill="#7262CC"/>
</svg>
